PathFileType	4	(X/Y/Z)	70_2_38_p0_0-520_filt_butterworth.trc
DataRate	CameraRate	NumFrames	NumMarkers	Units	OrigDataRate	OrigDataStartFrame	OrigNumFrames
55.0	55.0	6	27	m	55.0	325	520
Frame#	Time	RHip			RKnee			RAnkle			RBigToe			RSmallToe			RHeel			LHip			LKnee			LAnkle			LBigToe			LSmallToe			LHeel			Neck			Head			Nose			RShoulder			RElbow			RWrist			RThumb			RIndex			RPinky			LShoulder			LElbow			LWrist			LThumb			LIndex			LPinky			
		X1	Y1	Z1	X2	Y2	Z2	X3	Y3	Z3	X4	Y4	Z4	X5	Y5	Z5	X6	Y6	Z6	X7	Y7	Z7	X8	Y8	Z8	X9	Y9	Z9	X10	Y10	Z10	X11	Y11	Z11	X12	Y12	Z12	X13	Y13	Z13	X14	Y14	Z14	X15	Y15	Z15	X16	Y16	Z16	X17	Y17	Z17	X18	Y18	Z18	X19	Y19	Z19	X20	Y20	Z20	X21	Y21	Z21	X22	Y22	Z22	X23	Y23	Z23	X24	Y24	Z24	X25	Y25	Z25	X26	Y26	Z26	X27	Y27	Z27	
325	5.909090909090909	0.3544189401336183	0.4855329432894192	0.06961219709358289	0.33194371911071174	0.6354232615112909	0.4786022209139997	0.36247545770953477	0.7953825782016718	0.8937240230733402	0.32183152706442913	0.643671917079008	1.0071360599901424	0.395950825625107	0.6463754987938266	0.987317829930193	0.35801895319663346	0.9351603141636431	0.9815943270857508	0.1327873411052907	0.5394294934565318	0.04952293867444705	0.1576651675806004	0.6847282140711562	0.4819961845806248	0.17259108409911672	0.8220050762004973	0.8891618646575145	0.1731513744869755	0.6716855927482928	0.9951361275846922	0.11616748783682466	0.7170693780167403	0.9759871370033393	0.20576564775968953	0.9034569210602815	0.9405277492725443	0.26201303717091456	0.39021202177385894	-0.5556401746771213	0.23079667428044676	0.2319955134974247	-0.7655317395129644	0.22673437622158535	0.21436136455685678	-0.6180688653918067	0.43327972263947034	0.4203797275718266	-0.46403056177477586	0.49383091286604974	0.44034522410029714	-0.17438021644884155	0.4845323796844291	0.4594794271306324	0.11170757167150334	0.42926373892356934	0.4117768262422409	0.22232313382816496	0.43742885250122215	0.40389154069779587	0.2515806315010375	0.45340658217235974	0.4395476046666465	0.25031018371227653	0.11656130036225097	0.43460831196385397	-0.5413220612625681	-0.0845395015104541	0.28469411350333307	-0.5693999372530356	0.13132641594148534	0.24791058599806992	-0.6748636445899022	0.21665545710341794	0.1715110457571313	-0.6637711160047676	0.20368100373231943	0.15716757446286844	-0.6715452785817931	0.16900562206498534	0.20018072457299874	-0.6615658540883413
326	5.927272727272728	0.35063017941564534	0.48204115110651186	0.06780792940518846	0.33348548486623625	0.6386760117189152	0.47836331404586024	0.36353693453019575	0.79565910591458	0.8935182345976118	0.32192222774784474	0.6434912052403127	1.0056168741002935	0.39594104496690585	0.6462535128629698	0.9872877768296029	0.3585725437303859	0.9363015550982194	0.9835993582959799	0.13292420008770572	0.5418876070823733	0.050350985165744634	0.15774858087468246	0.6845856432597717	0.4829157699190171	0.17254962503137178	0.8219598082784599	0.889117874182356	0.17495844717407788	0.6721215023184871	0.9951660903994529	0.11614418677444731	0.7168389418893981	0.9759348188711047	0.2056722348099586	0.9035619735986251	0.9406216230744698	0.26359880912943257	0.39081419094817216	-0.5543129119514081	0.23392147154186893	0.2327263381553611	-0.7657876415479051	0.22839124376912065	0.21782912490295508	-0.6164733147864239	0.4328016367520474	0.41647042106262777	-0.4630627045283131	0.4937545848522848	0.4407723506546941	-0.1736795072049987	0.4826701394469201	0.45867291069026134	0.1116806760451927	0.4248938947045787	0.40952782891585904	0.223023324690869	0.43585208984878854	0.4042852316762647	0.25271971948745164	0.45226088573252937	0.4384672834138311	0.25092752613533775	0.1155481607320113	0.4383835813432089	-0.5421355146662182	-0.08453388204177816	0.28452372432924816	-0.5722995242989052	0.13453513200162168	0.24655532956232856	-0.6753931501478274	0.2188751479451974	0.17178866816189414	-0.6644586897730582	0.20649600436076548	0.1570309899677423	-0.6733063149923032	0.17309766789384282	0.19186417564964606	-0.6585061151529504
327	5.945454545454545	0.34730865402256417	0.4773084605540878	0.06650306432853785	0.3340194776591218	0.6398176381299955	0.4780605009488442	0.36491873018289345	0.7962173498251938	0.8934173476042948	0.32182790429334984	0.6428379669896747	1.0038405002885438	0.3959783380031936	0.6460482743011198	0.9872576808676401	0.3589450106874546	0.9375192783625107	0.985382763337047	0.13299237176114276	0.5416841631973661	0.05128573626031294	0.1573973600648711	0.6843450855176328	0.48408896956327313	0.17254280773853048	0.82195369977693	0.8891817626226788	0.1762606210197874	0.6721417927355862	0.9951372792173818	0.11612709856946912	0.7167183795780712	0.9758722253346415	0.20562171934122603	0.9036109016207923	0.9406796138542823	0.2648390172047023	0.391487909138718	-0.5524208571245248	0.2365167568478611	0.23383443860770076	-0.7658743856425977	0.23080220039689778	0.22205101936501814	-0.6146088423901676	0.4328498888542677	0.4133476970457388	-0.4628770998781456	0.49368459773315887	0.4416439229167891	-0.171748576339278	0.479302674583167	0.4546843784989907	0.11158490992192907	0.4203780919577832	0.4061723286708754	0.2245222004096112	0.43420778124075526	0.4056444272129075	0.25418465524190653	0.4507474476553003	0.4375130122991284	0.25207578993139346	0.11533919876238852	0.4388609642677436	-0.5410371116978513	-0.08406135525719988	0.28452998593487383	-0.5744710493556964	0.1377580730077474	0.2477817446580367	-0.676046445377148	0.21986242094142033	0.17061259184717564	-0.6646738833503718	0.20828557395732822	0.15689941407397115	-0.6749911480014148	0.17600609860354494	0.1882940747898072	-0.6570417108791988
328	5.963636363636364	0.34581314727899776	0.4738278335849764	0.06602282708049922	0.33398846608380195	0.6398195823252585	0.4781334971153362	0.36573689599982534	0.796704376118545	0.8939158147947679	0.3216003232083564	0.641944914411289	1.0029189585397442	0.39603587739031654	0.6458441889835507	0.9872396895229947	0.3590640508823184	0.9379434564440841	0.9863864508067923	0.1332441508180089	0.5411842082118398	0.05180574994900052	0.15630864358383406	0.6839862885634349	0.48494257137064417	0.17265580760246665	0.8221813238425483	0.889681223753113	0.17668491195942954	0.6719948123551521	0.9951064707373003	0.1161243493533739	0.7166531643069235	0.9758292167987273	0.20571150543486977	0.9037450076315159	0.9406795946670671	0.2657391238457592	0.39213894909037	-0.5506979576108388	0.23809004687982863	0.2365740908826575	-0.7658760342801623	0.23370362466679556	0.2263017768327381	-0.6132739557837263	0.4329185549056743	0.4117358648505617	-0.4629567678997557	0.49235110819936506	0.44265924159063946	-0.16944361941770555	0.4747703315659827	0.44745804518198573	0.11120331541042877	0.4162762310630713	0.4028567308250283	0.22583159258685281	0.43129562554795065	0.4071436200988831	0.2550780138506901	0.44857913391637017	0.43497830150214367	0.25339240187985235	0.11618859391317246	0.4354556022637938	-0.539660114219807	-0.08227275487680541	0.2841557233120006	-0.5762899286501804	0.1420400092958688	0.2486881889452316	-0.677258638842604	0.21993939368875098	0.16717160956199703	-0.6655402020322868	0.21013481688052768	0.15681078875559334	-0.6765364417627978	0.1786933705673556	0.18987397592315322	-0.6576605198543695
329	5.9818181818181815	0.3455539206670473	0.47294187434069673	0.06611187095461002	0.3338123904739968	0.6395400160248209	0.4784705069808559	0.36555522760142234	0.7968792119576839	0.895444243058201	0.3214191346561177	0.6414075213236446	1.0027430845704768	0.3960108652959211	0.6456160835773143	0.9872136333226276	0.35929588644424404	0.936060722229111	0.9864734624634109	0.13363480371092584	0.5411886867129588	0.05183712053654112	0.15484279430192266	0.6837251559528753	0.48564995576909187	0.1728847751851213	0.8226629165397165	0.8905727127238969	0.1766273487210802	0.6718964939641607	0.9950976207418354	0.11613832216574445	0.7166212509227363	0.9758121395758386	0.20600547880251793	0.9041976069560984	0.9406737563290889	0.26693157898448594	0.39274066160713617	-0.5494282290230642	0.23893280932880434	0.2401343253157998	-0.7658419561817402	0.23688237607392085	0.2306052774661418	-0.6127097974604266	0.4329419075081638	0.4115083137229933	-0.463006026548701	0.4895280290466752	0.44332139729511194	-0.16813094774427026	0.4701961722102784	0.43905088975762546	0.11051531133333982	0.41183659274404166	0.3991180306794465	0.22621258357528334	0.4268824473533966	0.4079233097633639	0.2557421902796531	0.44643836311493135	0.43240874118773304	0.25467100514944024	0.11747005343027866	0.4301482180190954	-0.5393496303229439	-0.07953074159971685	0.28235240500305625	-0.5782353640157789	0.14642826224817368	0.2467300197130778	-0.6783507544773412	0.22012899331670321	0.16262068284234305	-0.6670272237219738	0.21294806974580147	0.1567088167888191	-0.6780790657770995	0.1828187177684374	0.1901313089941165	-0.6587353884964972
330	6.0	0.3453028140116962	0.4738799619068605	0.06675680765943348	0.33367579200735326	0.6394073820102141	0.4786398847814277	0.3650333146044231	0.797148980939088	0.8975095284149379	0.3217560798110475	0.6422964872650783	1.0028389330210978	0.3958289356574914	0.6452865472261898	0.9871485453436457	0.35996387979363453	0.9307139280209781	0.9850994096784429	0.1334924939030036	0.5417755941264896	0.051953893588482146	0.15384996472289578	0.6839540287797231	0.48692146508840795	0.17305717139942767	0.8230062538910585	0.8910964200286179	0.1765136625268109	0.6718854139615129	0.9950991908528599	0.11615150820900785	0.7166300365962364	0.9758166058803647	0.20636711787448414	0.9048422031378477	0.9406814385891222	0.26838522759812	0.3931651968993238	-0.5484014266573234	0.23992543158544505	0.24272079016423334	-0.7658030565562604	0.23963687419305787	0.23478192488316033	-0.612349029219257	0.4332789007652425	0.41407222726264103	-0.46299172594153426	0.48663347108318133	0.44351014180775494	-0.16738896272912254	0.465368868828407	0.4309859484836952	0.1097597144868003	0.4059059742822844	0.3936322821720615	0.22589495534240206	0.42136229919297263	0.4061427259229487	0.25695749548088054	0.44457630062726156	0.43237413568762445	0.2561032700751474	0.11840040500296883	0.4261288662526998	-0.540084297766348	-0.07696790748432682	0.2785316431165354	-0.5797928384022186	0.14934899597540097	0.24380120982701828	-0.6788645365255935	0.22119741437582266	0.15984757293288054	-0.6679579584132999	0.21632659569862212	0.15662189963162168	-0.6791303023790105	0.1884064043174895	0.18448908915546003	-0.659113822787315
